<svg width="375" height="16" viewBox="0 0 375 16" fill="none" xmlns="http://www.w3.org/2000/svg">
<path d="M184.056 12.144C183.496 12.144 182.992 12.016 182.544 11.76C182.096 11.504 181.74 11.144 181.476 10.68C181.22 10.208 181.092 9.656 181.092 9.024C181.092 8.392 181.224 7.844 181.488 7.38C181.752 6.908 182.108 6.544 182.556 6.288C183.012 6.032 183.52 5.904 184.08 5.904C184.64 5.904 185.144 6.032 185.592 6.288C186.04 6.544 186.392 6.908 186.648 7.38C186.912 7.844 187.044 8.392 187.044 9.024C187.044 9.656 186.912 10.208 186.648 10.68C186.384 11.144 186.024 11.504 185.568 11.76C185.12 12.016 184.616 12.144 184.056 12.144ZM184.056 11.28C184.4 11.28 184.72 11.196 185.016 11.028C185.312 10.86 185.552 10.608 185.736 10.272C185.92 9.936 186.012 9.52 186.012 9.024C186.012 8.528 185.92 8.112 185.736 7.776C185.56 7.44 185.324 7.188 185.028 7.02C184.732 6.852 184.416 6.768 184.08 6.768C183.736 6.768 183.416 6.852 183.12 7.02C182.824 7.188 182.584 7.44 182.4 7.776C182.216 8.112 182.124 8.528 182.124 9.024C182.124 9.52 182.216 9.936 182.4 10.272C182.584 10.608 182.82 10.86 183.108 11.028C183.404 11.196 183.72 11.28 184.056 11.28ZM190.617 12.144C189.913 12.144 189.353 11.932 188.937 11.508C188.521 11.076 188.313 10.416 188.313 9.528V6.048H189.321V9.42C189.321 10.66 189.829 11.28 190.845 11.28C191.365 11.28 191.793 11.096 192.129 10.728C192.473 10.352 192.645 9.82 192.645 9.132V6.048H193.653V12H192.741L192.669 10.932C192.485 11.308 192.209 11.604 191.841 11.82C191.481 12.036 191.073 12.144 190.617 12.144Z" fill="#CED4DA"/>
<path d="M0.990234 8.48145H172.001" stroke="#CED4DA"/>
<path d="M203 8H374.011" stroke="#CED4DA"/>
</svg>
